<?xml version="1.0" encoding="UTF-8"?>
<svg width="800" height="600" viewBox="0 0 800 600" xmlns="http://www.w3.org/2000/svg">
  <!-- Nodes -->
  <circle cx="100" cy="100" r="4" fill="#50C9C3" opacity="0.6"/>
  <circle cx="200" cy="150" r="4" fill="#50C9C3" opacity="0.6"/>
  <circle cx="300" cy="100" r="4" fill="#50C9C3" opacity="0.6"/>
  <circle cx="400" cy="150" r="4" fill="#50C9C3" opacity="0.6"/>
  <circle cx="500" cy="100" r="4" fill="#50C9C3" opacity="0.6"/>
  <circle cx="600" cy="150" r="4" fill="#50C9C3" opacity="0.6"/>
  <circle cx="700" cy="100" r="4" fill="#50C9C3" opacity="0.6"/>
  
  <circle cx="150" cy="250" r="4" fill="#50C9C3" opacity="0.6"/>
  <circle cx="250" cy="300" r="4" fill="#50C9C3" opacity="0.6"/>
  <circle cx="350" cy="250" r="4" fill="#50C9C3" opacity="0.6"/>
  <circle cx="450" cy="300" r="4" fill="#50C9C3" opacity="0.6"/>
  <circle cx="550" cy="250" r="4" fill="#50C9C3" opacity="0.6"/>
  <circle cx="650" cy="300" r="4" fill="#50C9C3" opacity="0.6"/>
  
  <circle cx="200" cy="400" r="4" fill="#50C9C3" opacity="0.6"/>
  <circle cx="300" cy="450" r="4" fill="#50C9C3" opacity="0.6"/>
  <circle cx="400" cy="400" r="4" fill="#50C9C3" opacity="0.6"/>
  <circle cx="500" cy="450" r="4" fill="#50C9C3" opacity="0.6"/>
  <circle cx="600" cy="400" r="4" fill="#50C9C3" opacity="0.6"/>
  
  <!-- Connections -->
  <line x1="100" y1="100" x2="200" y2="150" stroke="#50C9C3" stroke-width="1" opacity="0.3"/>
  <line x1="200" y1="150" x2="300" y2="100" stroke="#50C9C3" stroke-width="1" opacity="0.3"/>
  <line x1="300" y1="100" x2="400" y2="150" stroke="#50C9C3" stroke-width="1" opacity="0.3"/>
  <line x1="400" y1="150" x2="500" y2="100" stroke="#50C9C3" stroke-width="1" opacity="0.3"/>
  <line x1="500" y1="100" x2="600" y2="150" stroke="#50C9C3" stroke-width="1" opacity="0.3"/>
  <line x1="600" y1="150" x2="700" y2="100" stroke="#50C9C3" stroke-width="1" opacity="0.3"/>
  
  <line x1="150" y1="250" x2="250" y2="300" stroke="#50C9C3" stroke-width="1" opacity="0.3"/>
  <line x1="250" y1="300" x2="350" y2="250" stroke="#50C9C3" stroke-width="1" opacity="0.3"/>
  <line x1="350" y1="250" x2="450" y2="300" stroke="#50C9C3" stroke-width="1" opacity="0.3"/>
  <line x1="450" y1="300" x2="550" y2="250" stroke="#50C9C3" stroke-width="1" opacity="0.3"/>
  <line x1="550" y1="250" x2="650" y2="300" stroke="#50C9C3" stroke-width="1" opacity="0.3"/>
  
  <line x1="200" y1="400" x2="300" y2="450" stroke="#50C9C3" stroke-width="1" opacity="0.3"/>
  <line x1="300" y1="450" x2="400" y2="400" stroke="#50C9C3" stroke-width="1" opacity="0.3"/>
  <line x1="400" y1="400" x2="500" y2="450" stroke="#50C9C3" stroke-width="1" opacity="0.3"/>
  <line x1="500" y1="450" x2="600" y2="400" stroke="#50C9C3" stroke-width="1" opacity="0.3"/>
  
  <!-- Vertical Connections -->
  <line x1="100" y1="100" x2="150" y2="250" stroke="#50C9C3" stroke-width="1" opacity="0.3"/>
  <line x1="200" y1="150" x2="250" y2="300" stroke="#50C9C3" stroke-width="1" opacity="0.3"/>
  <line x1="300" y1="100" x2="350" y2="250" stroke="#50C9C3" stroke-width="1" opacity="0.3"/>
  <line x1="400" y1="150" x2="450" y2="300" stroke="#50C9C3" stroke-width="1" opacity="0.3"/>
  <line x1="500" y1="100" x2="550" y2="250" stroke="#50C9C3" stroke-width="1" opacity="0.3"/>
  <line x1="600" y1="150" x2="650" y2="300" stroke="#50C9C3" stroke-width="1" opacity="0.3"/>
  
  <line x1="150" y1="250" x2="200" y2="400" stroke="#50C9C3" stroke-width="1" opacity="0.3"/>
  <line x1="250" y1="300" x2="300" y2="450" stroke="#50C9C3" stroke-width="1" opacity="0.3"/>
  <line x1="350" y1="250" x2="400" y2="400" stroke="#50C9C3" stroke-width="1" opacity="0.3"/>
  <line x1="450" y1="300" x2="500" y2="450" stroke="#50C9C3" stroke-width="1" opacity="0.3"/>
  <line x1="550" y1="250" x2="600" y2="400" stroke="#50C9C3" stroke-width="1" opacity="0.3"/>
</svg> 